<?xml version="1.0" standalone="no"?>
<!DOCTYPE svg PUBLIC "-//W3C//DTD SVG 20010904//EN"
 "http://www.w3.org/TR/2001/REC-SVG-20010904/DTD/svg10.dtd">
<svg version="1.0" xmlns="http://www.w3.org/2000/svg"
 width="64.000000pt" height="64.000000pt" viewBox="0 0 64.000000 64.000000"
 preserveAspectRatio="xMidYMid meet">

<g transform="translate(0.000000,64.000000) scale(0.100000,-0.100000)"
fill="#000000" stroke="none">
<path d="M225 597 c-85 -34 -128 -73 -167 -147 -19 -37 -23 -60 -23 -130 0
-99 17 -142 80 -205 56 -57 107 -78 192 -83 122 -7 218 51 274 163 28 58 31
71 27 137 -2 44 -11 89 -23 113 -25 51 -89 115 -140 140 -48 23 -175 30 -220
12z m201 -32 c17 -7 50 -30 72 -50 116 -104 116 -286 1 -389 -154 -139 -397
-62 -439 140 -43 208 168 382 366 299z"/>
<path d="M194 420 c-28 -11 -39 -29 -27 -41 6 -6 15 -4 23 6 7 8 20 15 30 15
10 0 23 -7 30 -15 9 -11 16 -13 24 -5 23 23 -42 55 -80 40z"/>
<path d="M394 420 c-28 -11 -39 -29 -27 -41 6 -6 15 -4 23 6 7 8 20 15 30 15
10 0 23 -7 30 -15 9 -11 16 -13 24 -5 23 23 -42 55 -80 40z"/>
<path d="M165 280 c-11 -18 15 -79 46 -104 17 -14 48 -30 69 -36 73 -20 162
22 190 90 24 57 16 60 -149 60 -91 0 -152 -4 -156 -10z m285 -24 c0 -20 -38
-65 -70 -81 -57 -30 -127 -12 -169 41 -40 51 -33 54 109 54 103 0 130 -3 130
-14z"/>
</g>
</svg>
